<?xml version="1.0" standalone="no"?>
<!DOCTYPE svg PUBLIC "-//W3C//DTD SVG 20010904//EN"
 "http://www.w3.org/TR/2001/REC-SVG-20010904/DTD/svg10.dtd">
<svg version="1.0" xmlns="http://www.w3.org/2000/svg"
 width="300.000000pt" height="300.000000pt" viewBox="0 0 300.000000 300.000000"
 preserveAspectRatio="xMidYMid meet">

<g transform="translate(0.000000,300.000000) scale(0.100000,-0.100000)"
fill="#000000" stroke="none">
<path d="M1080 2821 c-132 -28 -250 -159 -361 -401 -29 -63 -84 -164 -123
-225 -122 -194 -156 -298 -136 -420 5 -33 10 -61 10 -63 0 -1 17 -21 38 -45
34 -37 41 -54 60 -147 12 -58 22 -112 22 -120 0 -8 -22 -27 -49 -43 -95 -53
-183 -176 -211 -296 -8 -33 -11 -89 -8 -145 6 -116 30 -164 132 -273 74 -79
141 -122 214 -138 l32 -7 0 -101 c0 -106 -14 -299 -26 -361 -5 -31 -4 -36 13
-36 17 0 22 11 31 82 7 46 12 115 12 154 0 39 3 111 6 161 l7 90 47 -1 48 -1
5 -52 c7 -63 48 -143 96 -185 50 -44 164 -94 256 -113 115 -23 274 -22 353 3
114 36 196 131 209 242 l6 50 26 -17 c46 -30 117 -61 157 -69 21 -3 42 -8 46
-11 4 -2 -17 -75 -47 -162 -30 -88 -55 -162 -55 -165 0 -3 6 -6 14 -6 14 0 41
66 100 246 l27 81 65 7 c73 8 162 38 214 72 130 88 218 246 220 391 1 107 -53
245 -126 323 l-43 45 50 75 c61 91 103 136 149 160 51 26 78 59 100 124 44
124 39 194 -35 476 -24 91 -51 203 -60 250 -39 207 -97 325 -187 386 -63 43
-171 69 -283 68 -83 0 -98 -4 -188 -43 -120 -51 -171 -59 -256 -37 -64 16 -92
32 -171 97 -25 20 -59 44 -75 52 -75 37 -252 64 -325 48z m220 -43 c62 -15
126 -49 185 -99 82 -69 145 -93 245 -93 77 0 93 3 166 36 105 49 170 62 265
55 152 -12 252 -76 309 -200 16 -34 41 -118 55 -187 15 -69 44 -190 65 -270
78 -295 84 -374 40 -492 -24 -66 -48 -90 -118 -117 -60 -24 -182 -91 -229
-127 l-32 -24 21 47 c16 35 22 67 22 119 -1 88 -37 173 -107 250 l-47 52 30
12 c41 17 123 107 155 169 34 68 65 190 65 255 -1 112 -44 242 -106 315 -14
17 -47 44 -73 59 -39 23 -57 27 -121 27 -89 -1 -131 -19 -203 -90 -50 -50
-109 -158 -126 -235 -16 -67 -13 -219 4 -276 18 -58 17 -57 6 -49 -22 13 -231
45 -298 45 l-73 0 30 60 c42 84 60 160 60 260 0 146 -40 251 -127 330 -61 56
-112 74 -188 68 -140 -12 -257 -137 -306 -326 -41 -162 -7 -337 85 -440 l37
-41 -28 -17 c-81 -50 -109 -73 -145 -121 -44 -58 -68 -125 -68 -190 l0 -45
-72 64 c-40 35 -92 79 -116 97 -49 38 -67 69 -76 131 -14 103 23 210 133 383
33 53 90 156 124 230 118 248 217 362 337 388 41 9 156 2 220 -13z m-15 -147
c51 -23 110 -89 141 -155 61 -133 42 -357 -39 -477 -21 -31 -28 -33 -127 -50
-58 -10 -136 -28 -173 -41 l-69 -23 -39 44 c-207 233 -61 721 216 721 28 0 68
-9 90 -19z m923 -124 c197 -126 201 -518 6 -696 -76 -69 -88 -71 -166 -22 -57
36 -164 89 -211 105 -64 21 -80 271 -26 407 42 107 130 205 206 229 54 18 144
6 191 -23z m-583 -593 c292 -50 527 -191 608 -363 128 -273 -159 -512 -613
-513 -308 -1 -570 97 -737 275 -96 103 -125 209 -87 321 31 91 152 193 284
242 146 52 371 68 545 38z m-925 -420 l55 -58 -60 -12 c-33 -7 -61 -11 -63 -9
-2 2 -10 32 -18 66 -8 35 -16 75 -19 87 l-6 24 28 -20 c15 -11 53 -46 83 -78z
m108 -143 c23 -35 32 -61 32 -90 l0 -41 -42 -1 -43 -2 40 -6 c35 -5 40 -10 43
-35 4 -29 3 -29 -41 -24 -25 3 -50 2 -55 -1 -6 -3 -12 -27 -14 -51 l-3 -45
-55 -5 -55 -5 -6 -65 c-3 -36 -4 -70 -1 -77 4 -13 35 -23 75 -23 26 0 27 -2
27 -50 0 -59 5 -63 94 -64 l61 -1 10 54 9 53 42 -5 c23 -2 47 -1 53 2 6 4 12
40 13 81 l3 75 -32 3 c-18 2 -33 5 -33 7 0 6 32 89 37 94 2 3 22 -13 44 -35
l41 -39 -22 37 c-11 20 -28 42 -36 48 -7 7 -14 19 -14 27 0 13 3 13 24 0 149
-98 339 -153 569 -164 114 -6 118 -7 112 -27 -43 -150 -44 -215 -5 -320 30
-79 113 -166 198 -208 63 -31 73 -33 172 -33 95 0 110 3 165 30 77 37 153 113
190 190 27 55 30 69 30 170 0 101 -3 115 -29 170 -34 69 -105 144 -165 175
-35 17 -40 24 -31 36 28 32 69 14 158 -70 109 -103 157 -276 118 -422 -48
-182 -208 -316 -393 -330 -140 -11 -245 29 -358 136 -80 76 -109 90 -192 90
-117 0 -254 19 -373 51 -63 17 -135 31 -160 30 -64 -2 -117 -40 -144 -103
l-21 -50 -87 4 c-75 4 -96 9 -161 41 -85 42 -170 125 -205 201 -54 113 -56
270 -5 378 68 144 217 250 359 257 26 1 35 -6 62 -48z m1580 -86 c-28 -42 -53
-74 -57 -73 -3 2 -18 10 -33 17 -16 8 -28 17 -28 21 0 10 151 109 167 110 2 0
-20 -34 -49 -75z m-1469 -35 l34 -29 -47 -138 -46 -138 5 79 c3 43 5 119 5
168 0 48 3 88 8 88 4 -1 22 -14 41 -30z m1137 -270 c-30 -148 -46 -186 -46
-112 0 22 -3 80 -6 129 l-7 91 39 21 c21 11 42 20 45 21 4 0 -8 -67 -25 -150z
m180 89 c-1 -19 -5 -24 -12 -18 -6 5 -13 6 -16 3 -3 -2 -5 6 -5 18 0 16 5 24
17 24 12 0 17 -8 16 -27z m-92 -21 c20 -29 20 -87 1 -115 -9 -12 -29 -31 -45
-43 l-30 -21 0 20 c0 12 6 21 13 21 19 0 43 30 51 61 4 19 0 34 -14 52 -11 14
-20 30 -20 36 0 19 28 12 44 -11z m-163 -163 l3 -70 -55 -37 c-72 -50 -104
-56 -149 -26 -43 29 -58 74 -40 119 10 23 42 50 119 101 l106 70 6 -43 c4 -24
8 -75 10 -114z m421 1 c4 -20 1 -23 -19 -22 -26 1 -26 1 -13 27 14 26 27 24
32 -5z m-80 -14 c11 -10 22 -37 25 -58 7 -55 -15 -79 -160 -176 -147 -98 -188
-109 -237 -60 -33 33 -39 72 -18 116 14 32 58 64 58 43 0 -8 -9 -22 -20 -32
-12 -11 -20 -31 -20 -52 0 -44 30 -73 75 -73 75 0 103 85 44 134 -44 37 -36
62 36 113 33 23 74 49 90 58 38 20 101 13 127 -13z m-606 -118 c-14 -30 -21
-30 -24 -1 -1 16 4 23 17 24 16 1 17 -2 7 -23z m-551 -123 c113 -32 250 -51
370 -51 88 0 122 -14 161 -66 63 -82 31 -211 -69 -280 -72 -49 -115 -59 -262
-58 -201 0 -343 48 -426 142 -71 81 -86 186 -38 271 44 79 100 87 264 42z
m715 -57 c0 -17 -6 -24 -18 -24 -25 0 -30 6 -25 34 7 32 43 24 43 -10z"/>
<path d="M1226 2128 c-36 -32 -42 -75 -16 -116 25 -41 57 -54 104 -41 44 12
66 42 66 92 0 78 -94 118 -154 65z"/>
<path d="M1874 2070 c-32 -13 -54 -50 -54 -91 0 -66 81 -111 142 -78 26 14 48
67 41 101 -10 53 -79 90 -129 68z"/>
<path d="M1200 874 c-68 -42 -83 -60 -69 -85 14 -28 47 -22 114 20 61 38 82
74 53 92 -22 14 -40 9 -98 -27z"/>
<path d="M1432 840 c-67 -43 -81 -62 -62 -85 19 -22 37 -19 107 22 65 39 83
64 63 88 -19 23 -40 18 -108 -25z"/>
<path d="M1789 871 c-37 -37 -37 -65 1 -103 26 -25 36 -29 62 -24 40 8 54 20
63 53 8 35 -11 78 -41 92 -38 17 -53 14 -85 -18z"/>
<path d="M2188 833 c-26 -29 -30 -60 -14 -91 25 -49 82 -57 121 -17 30 30 32
64 4 99 -25 32 -87 37 -111 9z"/>
</g>
</svg>
